<svg width="49" height="40" viewBox="0 0 49 40" fill="none" xmlns="http://www.w3.org/2000/svg">
<g clip-path="url(#clip0_20_5978)">
<path d="M19.9223 22.5812V40H0.337891V26.2455C0.337891 18.8087 1.42591 13.4116 3.58383 10.0903C6.43083 5.63177 10.928 2.27437 17.0753 0L21.5362 5.83033C17.8188 7.11191 15.0806 9.00722 13.3216 11.5343C11.5627 14.0614 10.5835 17.7437 10.384 22.5812H19.9223Z" fill="black"/>
<path d="M46.7059 22.5812V40H27.1396V26.2455C27.1396 18.8086 28.2277 13.4115 30.3856 10.0722C33.2326 5.63175 37.7298 2.27435 43.8771 -0.0180664L48.338 5.81226C44.6206 7.09385 41.8824 8.98915 40.1234 11.5162C38.3644 14.0433 37.3852 17.7256 37.1857 22.5632H46.7241L46.7059 22.5812Z" fill="black"/>
</g>
<defs>
<clipPath id="clip0_20_5978">
<rect width="48" height="40" fill="white" transform="translate(0.337891)"/>
</clipPath>
</defs>
</svg>
